# xmcd
#
# Track frame offsets: 
#        300
#        20945
#        43810
#        71272
#        98485
#        131718
#        141555
#        155725
#        166119
#        179944
#        195344
#        240927
#        256525
#        270425
#        287286
#        304058
#
# Disc length: 4369 seconds
#
# Revision: 0
# Processed by: cddbd v1.5.2PL0 Copyright (c) Steve Scherf et al.
# Submitted via: ExactAudioCopy v1.0b3
#
DISCID=dd110d10
DTITLE=Big Jack Johnson - The Oil Man Got Drunk: Rooster Blues Session
DTITLE=s 1990, 1993, 1994
DYEAR=1994
DGENRE=Electric Blues
TTITLE0=Nieokreślony twórca - Rudoph Got Drunk Last Night 
TTITLE1=Nieokreślony twórca - The Things That I Used To Do (Band Versi
TTITLE1=on) 
TTITLE2=Nieokreślony twórca - Ice Storm Blues (Part 1) 
TTITLE3=Nieokreślony twórca - Ice Storm Blues (Part 2) 
TTITLE4=Nieokreślony twórca - Vampire Woman 
TTITLE5=Nieokreślony twórca - Close Shave Boogie 
TTITLE6=Nieokreślony twórca - The Spoonful 
TTITLE7=Nieokreślony twórca - Little Piggy 
TTITLE8=Nieokreślony twórca - Corrine, Corrina 
TTITLE9=Nieokreślony twórca - Fightin' Woman 
TTITLE10=Nieokreślony twórca - I'm A Lonely Man 
TTITLE11=Nieokreślony twórca - Baby Please Don't Go 
TTITLE12=Nieokreślony twórca - Hummin' Blues (Part 1)
TTITLE13=Nieokreślony twórca - Hummin' Blues (Part 2)
TTITLE14=Nieokreślony twórca - Jingle Bell Boogie 
TTITLE15=Nieokreślony twórca - The Things That I Used To Do (Solo Vers
TTITLE15=ion) 
EXTD=
EXTT0=
EXTT1=
EXTT2=
EXTT3=
EXTT4=
EXTT5=
EXTT6=
EXTT7=
EXTT8=
EXTT9=
EXTT10=
EXTT11=
EXTT12=
EXTT13=
EXTT14=
EXTT15=
PLAYORDER=
